<?xml version="1.0" standalone="no"?>
<!DOCTYPE svg PUBLIC "-//W3C//DTD SVG 20010904//EN"
 "http://www.w3.org/TR/2001/REC-SVG-20010904/DTD/svg10.dtd">
<svg version="1.0" xmlns="http://www.w3.org/2000/svg"
 width="129.000000pt" height="129.000000pt" viewBox="0 0 129.000000 129.000000"
 preserveAspectRatio="xMidYMid meet">
<metadata>
Created by potrace 1.11, written by Peter Selinger 2001-2013
</metadata>
<g transform="translate(0.000000,129.000000) scale(0.100000,-0.100000)"
fill="#000000" stroke="none">
<path d="M573 1240 c-3 -11 -10 -20 -15 -20 -5 0 -6 6 -3 13 4 6 -2 2 -12 -9
-10 -12 -27 -27 -38 -33 -18 -11 -18 -11 5 -6 l25 7 -22 -16 c-20 -15 -30 -62
-11 -50 4 3 8 -6 8 -20 0 -14 5 -26 11 -26 5 0 7 -5 4 -10 -4 -6 -11 -8 -16
-5 -5 4 -6 -2 -2 -11 5 -14 3 -16 -12 -11 -15 6 -16 5 -5 -8 9 -11 9 -15 1
-15 -7 0 -9 -4 -6 -10 3 -5 1 -10 -5 -10 -6 0 -10 -8 -8 -17 2 -11 -2 -17 -10
-15 -10 2 -10 -2 -2 -18 6 -11 8 -21 5 -21 -3 -1 -11 -2 -17 -3 -7 -1 -12 -10
-10 -20 2 -12 -1 -16 -9 -10 -9 5 -10 2 -5 -11 5 -15 4 -16 -9 -5 -13 11 -16
11 -13 -1 2 -9 -4 -13 -17 -11 l-20 4 20 -16 c16 -13 17 -15 3 -10 -13 4 -18
1 -18 -11 0 -9 -4 -13 -10 -10 -5 3 -10 -1 -10 -11 0 -13 -3 -14 -14 -5 -12
10 -13 8 -9 -8 3 -13 1 -21 -8 -21 -7 0 -9 -3 -5 -7 3 -4 -6 -12 -21 -18 -22
-9 -33 -9 -50 2 -20 14 -22 13 -18 -6 2 -12 -1 -18 -9 -15 -7 3 -12 -4 -12
-16 0 -11 5 -20 11 -20 5 0 3 -5 -5 -10 -13 -8 -12 -10 4 -10 20 0 20 0 0 -15
-13 -10 -14 -14 -4 -13 8 2 16 -6 18 -20 2 -12 7 -20 12 -17 4 3 11 -2 14 -11
4 -10 2 -13 -7 -9 -6 4 -4 0 5 -7 11 -9 14 -19 8 -28 -5 -8 -6 -18 -4 -22 3
-4 -1 -5 -9 -2 -8 3 -18 0 -22 -5 -3 -6 -11 -9 -16 -6 -5 3 -6 -1 -3 -9 6 -15
-11 -17 -34 -2 -8 4 -11 3 -10 -5 2 -6 -3 -14 -11 -17 -10 -3 -11 0 -5 9 6 12
5 12 -8 1 -10 -8 -14 -20 -11 -30 6 -15 5 -16 -12 -2 -11 9 -16 10 -11 2 4 -7
2 -12 -8 -12 -8 0 -18 -5 -22 -12 -5 -7 -3 -8 7 -3 8 5 6 -1 -4 -12 -13 -15
-15 -23 -7 -28 9 -6 9 -10 -1 -16 -11 -7 -11 -9 1 -9 12 0 12 -2 2 -9 -11 -6
-10 -11 3 -24 9 -9 13 -21 10 -27 -3 -5 1 -10 9 -10 9 0 16 -5 16 -11 0 -5 -5
-7 -12 -3 -7 5 -8 3 -4 -5 5 -7 15 -10 24 -6 9 3 13 3 9 -1 -4 -4 0 -16 10
-26 18 -20 48 -25 38 -5 -4 6 -1 5 7 -3 7 -8 26 -14 43 -13 17 1 25 0 18 -3
-8 -4 -7 -11 4 -24 17 -20 26 -63 11 -54 -4 3 -8 1 -8 -5 0 -5 6 -11 13 -14 9
-3 9 -7 -1 -19 -10 -13 -10 -17 0 -21 10 -3 8 -10 -6 -26 -17 -18 -17 -21 -3
-15 18 7 24 -11 7 -21 -8 -5 -7 -11 1 -21 9 -12 80 -14 415 -14 407 0 410 0
405 33 0 4 4 7 10 7 8 0 7 6 -2 17 -8 10 -9 14 -2 10 6 -4 14 -3 18 3 3 5 1
10 -5 10 -6 0 -9 4 -5 9 3 5 -2 17 -11 25 -14 15 -14 16 5 16 11 0 23 4 26 10
4 6 -1 7 -12 4 -14 -4 -12 -1 5 13 13 10 24 30 26 44 1 14 6 31 11 38 6 10 4
12 -5 6 -10 -6 -12 -3 -8 13 5 16 2 19 -11 14 -14 -5 -14 -4 -1 13 9 11 10 16
3 11 -8 -4 -13 -1 -13 8 0 9 -5 16 -11 16 -5 0 -7 5 -4 10 6 9 -11 14 -43 13
-9 -1 -10 3 -2 12 7 9 6 16 -7 26 -9 8 -14 9 -11 4 4 -6 3 -17 -3 -25 -7 -12
-9 -12 -9 4 0 14 -6 17 -25 14 -13 -3 -22 -1 -19 4 3 5 0 16 -8 25 -9 12 -9
15 0 9 6 -4 12 -3 12 1 0 5 -6 15 -12 22 -11 11 -10 12 0 7 14 -8 45 11 38 23
-3 4 5 8 16 8 22 2 40 22 32 35 -3 4 3 5 12 1 12 -4 15 -3 10 5 -4 7 -2 12 6
12 9 0 9 3 -2 10 -12 8 -12 10 5 10 11 0 16 4 10 8 -5 4 -11 15 -11 25 -2 15
1 16 14 5 13 -11 14 -10 5 7 -6 11 -10 37 -9 57 0 20 -3 36 -9 35 -14 -3 -8
55 9 82 6 10 5 12 -2 7 -7 -4 -12 -3 -12 3 0 5 4 12 10 16 5 3 6 15 1 28 -5
12 -5 31 -1 42 4 11 5 25 2 30 -3 6 2 4 11 -4 9 -7 17 -9 17 -3 0 5 11 13 25
16 14 4 23 11 20 16 -4 6 1 13 10 16 13 6 14 8 3 15 -10 7 -11 9 0 9 7 0 10 5
7 10 -3 6 0 10 7 10 9 1 7 5 -4 14 -18 13 -26 32 -10 22 4 -2 8 4 8 14 0 10
-4 16 -8 14 -4 -3 -8 2 -8 10 0 9 -5 16 -11 16 -6 0 -8 7 -5 16 3 8 2 12 -4 9
-6 -3 -10 2 -10 12 0 14 -2 15 -9 4 -6 -10 -10 -10 -16 -1 -4 7 -17 9 -32 5
-17 -4 -23 -2 -18 6 6 8 2 8 -12 0 -11 -6 -23 -8 -26 -4 -4 3 -9 -1 -13 -10
-3 -9 -12 -13 -20 -10 -8 3 -11 9 -8 14 3 5 -6 5 -19 0 -22 -9 -24 -7 -19 11
3 13 1 19 -5 15 -6 -4 -21 2 -33 13 -12 11 -27 17 -31 14 -5 -3 -9 0 -9 6 0 6
-5 8 -12 4 -10 -6 -10 -5 -1 8 18 21 3 31 -17 13 -15 -14 -18 -14 -30 0 -11
14 -14 13 -27 -2 -9 -12 -12 -13 -8 -3 4 8 -1 6 -9 -4 -16 -20 -16 -20 -17 0
-1 15 -3 14 -9 -6 -6 -19 -8 -20 -9 -6 -1 11 -6 16 -14 13 -8 -3 -20 -1 -28 5
-11 8 -10 8 5 4 16 -6 17 -4 6 9 -7 8 -19 15 -26 15 -8 0 -14 5 -14 11 0 5 5
7 12 3 7 -4 8 -3 4 5 -4 6 -11 9 -16 6 -4 -3 -11 1 -13 7 -4 10 -8 10 -15 -1
-8 -11 -10 -11 -15 0 -4 10 -6 10 -6 2 -1 -7 -8 -13 -17 -13 -8 0 -12 5 -9 10
3 6 3 10 0 10 -4 0 -9 -9 -12 -20z m512 -1139 c3 -5 2 -12 -3 -15 -5 -3 -9 1
-9 9 0 17 3 19 12 6z"/>
</g>
</svg>
